<?xml version="1.0" encoding="UTF-8" standalone="no"?>
<!DOCTYPE svg PUBLIC "-//W3C//DTD SVG 1.1//EN" "http://www.w3.org/Graphics/SVG/1.1/DTD/svg11.dtd">
<svg width="100%" height="100%" viewBox="0 0 72 72" version="1.1" xmlns="http://www.w3.org/2000/svg" xmlns:xlink="http://www.w3.org/1999/xlink" xml:space="preserve" xmlns:serif="http://www.serif.com/" style="fill-rule:evenodd;clip-rule:evenodd;stroke-linejoin:round;stroke-miterlimit:2;">
    <g transform="matrix(10.5169,0,0,2.75048,-101.672,6.70171)">
        <path d="M16.133,9.925L16.133,11.379C16.133,11.781 16.048,12.106 15.943,12.106L10.238,12.106C10.133,12.106 10.048,11.781 10.048,11.379L10.048,9.925C10.048,9.524 10.133,9.198 10.238,9.198L15.943,9.198C16.048,9.198 16.133,9.524 16.133,9.925Z"/>
    </g>
    <g transform="matrix(10.5169,0,0,2.75048,-101.672,26.7017)">
        <path d="M16.133,9.925L16.133,11.379C16.133,11.781 16.048,12.106 15.943,12.106L10.238,12.106C10.133,12.106 10.048,11.781 10.048,11.379L10.048,9.925C10.048,9.524 10.133,9.198 10.238,9.198L15.943,9.198C16.048,9.198 16.133,9.524 16.133,9.925Z"/>
    </g>
    <g transform="matrix(10.5169,0,0,2.75048,-101.672,-13.2983)">
        <path d="M16.133,9.925L16.133,11.379C16.133,11.781 16.048,12.106 15.943,12.106L10.238,12.106C10.133,12.106 10.048,11.781 10.048,11.379L10.048,9.925C10.048,9.524 10.133,9.198 10.238,9.198L15.943,9.198C16.048,9.198 16.133,9.524 16.133,9.925Z"/>
    </g>
</svg>
