<?xml version="1.0" encoding="UTF-8" standalone="no"?>
<!DOCTYPE svg PUBLIC "-//W3C//DTD SVG 1.1//EN" "http://www.w3.org/Graphics/SVG/1.1/DTD/svg11.dtd">
<svg width="100%" height="100%" viewBox="0 0 256 256" version="1.1" xmlns="http://www.w3.org/2000/svg" xmlns:xlink="http://www.w3.org/1999/xlink" xml:space="preserve" xmlns:serif="http://www.serif.com/" style="fill-rule:evenodd;clip-rule:evenodd;stroke-linecap:round;stroke-miterlimit:1.5;">
    <g transform="matrix(1,0,0,1,-612,0)">
        <rect id="pets" x="612" y="0" width="256" height="256" style="fill:none;"/>
        <g id="pets1" serif:id="pets">
            <g transform="matrix(1.86054,0,0,1.86054,-680.71,-106.982)">
                <g transform="matrix(0.815615,0,0,0.806,113.735,48.7258)">
                    <path d="M819.473,164.189C817.99,164.189 815.487,163.656 812.311,162.765C806.689,161.188 798.211,158.492 789.785,158.492C781.663,158.492 773.614,161.179 768.268,162.748C765.181,163.654 762.743,164.189 761.282,164.189C750.7,164.189 743.128,155.803 741.838,145.3C741.473,142.334 742.577,137.513 745.134,131.941C750.056,121.217 760.077,106.744 768.382,98.341C773.851,92.806 783.985,90.034 790.377,90.034C796.207,90.034 804.721,90.759 811.917,97.218C823.198,107.344 836.787,128.714 838.906,143.896C840.421,154.753 830.436,164.189 819.473,164.189ZM819.473,158.855C827.317,158.855 834.77,152.411 833.686,144.642C831.711,130.493 818.932,110.646 808.419,101.21C802.408,95.815 795.247,95.369 790.377,95.369C785.082,95.369 776.64,97.529 772.109,102.113C760.784,113.574 746.113,136.856 747.069,144.642C748.026,152.428 753.438,158.855 761.282,158.855C765.142,158.855 777.398,153.158 789.785,153.158C802.567,153.158 815.49,158.855 819.473,158.855Z"/>
                </g>
                <g transform="matrix(1.70149,-0.513647,0.556242,1.84258,-557.866,276.08)">
                    <ellipse cx="712.176" cy="110.934" rx="6.815" ry="7.508" style="fill:none;stroke:black;stroke-width:2.32px;"/>
                </g>
                <g transform="matrix(2.04686,-0.0116292,0.0133614,2.35174,-709.705,-159.079)">
                    <ellipse cx="712.176" cy="110.934" rx="6.815" ry="7.508" style="fill:none;stroke:black;stroke-width:1.95px;"/>
                </g>
                <g transform="matrix(1.90573,0.405731,-0.441048,2.07161,-520.482,-416.876)">
                    <ellipse cx="712.176" cy="110.934" rx="6.815" ry="7.508" style="fill:none;stroke:black;stroke-width:2.11px;"/>
                </g>
                <g transform="matrix(1.32881,1.09514,-1.20613,1.46349,-2.28145,-809.696)">
                    <ellipse cx="712.176" cy="110.934" rx="6.815" ry="7.508" style="fill:none;stroke:black;stroke-width:2.37px;"/>
                </g>
            </g>
        </g>
    </g>
</svg>
