<?xml version="1.0" encoding="UTF-8" standalone="no"?>
<!DOCTYPE svg PUBLIC "-//W3C//DTD SVG 1.1//EN" "http://www.w3.org/Graphics/SVG/1.1/DTD/svg11.dtd">
<svg width="100%" height="100%" viewBox="0 0 256 256" version="1.1" xmlns="http://www.w3.org/2000/svg" xmlns:xlink="http://www.w3.org/1999/xlink" xml:space="preserve" xmlns:serif="http://www.serif.com/" style="fill-rule:evenodd;clip-rule:evenodd;stroke-linecap:round;stroke-linejoin:round;stroke-miterlimit:1.5;">
    <g transform="matrix(1,0,0,1,-306,0)">
        <rect id="tv" x="306" y="0" width="256" height="256" style="fill:none;"/>
        <g id="tv1" serif:id="tv">
            <g transform="matrix(1,0,0,1,292.183,205.478)">
                <path d="M51.817,39.855L233.242,39.855" style="fill:none;stroke:black;stroke-width:8px;"/>
            </g>
            <g transform="matrix(6.12323e-17,-0.176381,1,1.08002e-17,384.145,254.473)">
                <path d="M51.817,39.855L233.242,39.855" style="fill:none;stroke:black;stroke-width:11.14px;"/>
            </g>
            <g transform="matrix(6.12323e-17,-0.176381,1,1.08002e-17,404.145,254.473)">
                <path d="M51.817,39.855L233.242,39.855" style="fill:none;stroke:black;stroke-width:11.14px;"/>
            </g>
            <g transform="matrix(3.48991,0,0,2.32661,-930.459,-198.005)">
                <path d="M427.649,107.111L427.649,173.13C427.649,175.154 426.554,176.797 425.204,176.797L356.74,176.797C355.391,176.797 354.295,175.154 354.295,173.13L354.295,107.111C354.295,105.087 355.391,103.443 356.74,103.443L425.204,103.443C426.554,103.443 427.649,105.087 427.649,107.111ZM425.357,107.111C425.357,106.984 425.288,106.882 425.204,106.882L356.74,106.882C356.656,106.882 356.587,106.984 356.587,107.111L356.587,173.13C356.587,173.256 356.656,173.359 356.74,173.359L425.204,173.359C425.288,173.359 425.357,173.256 425.357,173.13L425.357,107.111Z"/>
            </g>
            <g transform="matrix(1.28283,0,0,2.56962,-22.9912,-177.649)">
                <path d="M363.606,135.149L348.865,119.796L348.865,135.149C343.145,135.353 337.967,135.789 333.74,136.392C332.933,136.454 332.161,136.519 331.427,136.586L331.291,136.586L331.291,101.491L348.865,101.491L363.606,116.844L363.606,101.308L381.18,101.308L381.18,136.403L378.809,136.403C378.809,136.403 373.54,135.692 367.405,135.322C366.17,135.253 364.902,135.195 363.606,135.149ZM367.999,121.42L376.787,130.573C376.787,121.121 376.787,103.501 376.787,103.501C376.787,103.501 367.999,103.501 367.999,103.501L367.999,121.42ZM344.472,115.22L335.685,106.068L335.685,133.881C338.365,133.576 341.318,133.327 344.472,133.149L344.472,115.22ZM374.929,133.713C368.286,126.793 346.099,103.685 346.099,103.685C346.099,103.685 338.269,103.685 338.269,103.685L366.477,133.065C369.586,133.222 372.566,133.476 374.929,133.713Z"/>
            </g>
        </g>
    </g>
</svg>
