<?xml version="1.0" encoding="UTF-8" standalone="no"?>
<!DOCTYPE svg PUBLIC "-//W3C//DTD SVG 1.1//EN" "http://www.w3.org/Graphics/SVG/1.1/DTD/svg11.dtd">
<svg width="100%" height="100%" viewBox="0 0 96 96" version="1.1" xmlns="http://www.w3.org/2000/svg" xmlns:xlink="http://www.w3.org/1999/xlink" xml:space="preserve" xmlns:serif="http://www.serif.com/" style="fill-rule:evenodd;clip-rule:evenodd;stroke-linejoin:round;stroke-miterlimit:2;">
    <g transform="matrix(1.89165,0,0,0.304426,20.6787,48.0714)">
        <path d="M1.756,-25.367L-0.359,-25.367L-0.359,-51.646L3.87,-51.646L3.87,-131.629L8.099,-131.629L8.099,-105.351L20.787,-105.351L20.787,-131.629L25.016,-131.629L25.016,-51.646L29.245,-51.646L29.245,-25.367L27.13,-25.367L27.13,131.16L22.901,131.16L22.901,53.47L5.985,53.47L5.985,131.16L1.756,131.16L1.756,-25.367ZM8.099,-79.072L8.099,-51.646L20.787,-51.646L20.787,-79.072L8.099,-79.072ZM22.901,27.191L22.901,-25.367L5.985,-25.367L5.985,27.191L22.901,27.191Z"/>
    </g>
</svg>
