<?xml version="1.0" encoding="UTF-8" standalone="no"?>
<!DOCTYPE svg PUBLIC "-//W3C//DTD SVG 1.1//EN" "http://www.w3.org/Graphics/SVG/1.1/DTD/svg11.dtd">
<svg width="100%" height="100%" viewBox="0 0 64 64" version="1.1" xmlns="http://www.w3.org/2000/svg" xmlns:xlink="http://www.w3.org/1999/xlink" xml:space="preserve" xmlns:serif="http://www.serif.com/" style="fill-rule:evenodd;clip-rule:evenodd;stroke-linejoin:round;stroke-miterlimit:2;">
    <g transform="matrix(1,0,0,1,-80,0)">
        <g id="export" transform="matrix(1,0,0,1,80,0)">
            <rect x="0" y="0" width="64" height="64" style="fill:none;"/>
            <g transform="matrix(1.2638,0,0,1.2638,0.90491,-10.6976)">
                <path d="M21.439,41.782C19.759,43.287 17.54,44.202 15.109,44.202C9.869,44.202 5.614,39.948 5.614,34.707C5.614,29.467 9.869,25.212 15.109,25.212C20.35,25.212 24.604,29.467 24.604,34.707C24.604,29.467 28.859,25.212 34.1,25.212C39.34,25.212 43.595,29.467 43.595,34.707C43.595,39.948 39.34,44.202 34.1,44.202C31.669,44.202 29.45,43.287 27.769,41.782L27.769,42.62C27.769,44.367 26.351,45.785 24.604,45.785C22.858,45.785 21.439,44.367 21.439,42.62L21.439,41.782ZM34.1,28.377C30.606,28.377 27.769,31.213 27.769,34.707C27.769,38.201 30.606,41.037 34.1,41.037C37.593,41.037 40.43,38.201 40.43,34.707C40.43,31.213 37.593,28.377 34.1,28.377ZM34.1,31.146C36.065,31.146 37.66,32.742 37.66,34.707C37.66,36.672 36.065,38.268 34.1,38.268C32.134,38.268 30.539,36.672 30.539,34.707C30.539,32.742 32.134,31.146 34.1,31.146ZM15.109,28.377C11.616,28.377 8.779,31.213 8.779,34.707C8.779,38.201 11.616,41.037 15.109,41.037C18.603,41.037 21.439,38.201 21.439,34.707C21.439,31.213 18.603,28.377 15.109,28.377ZM15.109,31.146C17.074,31.146 18.67,32.742 18.67,34.707C18.67,36.672 17.074,38.268 15.109,38.268C13.144,38.268 11.549,36.672 11.549,34.707C11.549,32.742 13.144,31.146 15.109,31.146ZM24.604,16.564L6.322,25.705C5.541,26.096 4.589,25.779 4.199,24.998C3.808,24.216 4.125,23.265 4.906,22.874L23.897,13.379C24.343,13.156 24.866,13.156 25.312,13.379L44.302,22.874C45.084,23.265 45.401,24.216 45.01,24.998C44.62,25.779 43.668,26.096 42.887,25.705L24.604,16.564ZM7.197,51.193C6.323,51.193 5.614,50.484 5.614,49.61C5.614,48.737 6.323,48.028 7.197,48.028L42.012,48.028C42.886,48.028 43.595,48.737 43.595,49.61C43.595,50.484 42.886,51.193 42.012,51.193L7.197,51.193Z" style="fill:url(#_Linear1);"/>
            </g>
        </g>
    </g>
    <defs>
        <linearGradient id="_Linear1" x1="0" y1="0" x2="1" y2="0" gradientUnits="userSpaceOnUse" gradientTransform="matrix(41.146,37.9807,-37.9807,41.146,4.03142,13.2121)"><stop offset="0" style="stop-color:rgb(52,205,167);stop-opacity:1"/><stop offset="1" style="stop-color:rgb(35,132,143);stop-opacity:1"/></linearGradient>
    </defs>
</svg>
