<?xml version="1.0" encoding="UTF-8" standalone="no"?>
<!DOCTYPE svg PUBLIC "-//W3C//DTD SVG 1.1//EN" "http://www.w3.org/Graphics/SVG/1.1/DTD/svg11.dtd">
<svg width="100%" height="100%" viewBox="0 0 64 64" version="1.1" xmlns="http://www.w3.org/2000/svg" xmlns:xlink="http://www.w3.org/1999/xlink" xml:space="preserve" xmlns:serif="http://www.serif.com/" style="fill-rule:evenodd;clip-rule:evenodd;stroke-linejoin:round;stroke-miterlimit:2;">
    <g transform="matrix(-8.7746,-1.07458e-15,1.07458e-15,-8.7746,266.003,251.621)">
        <path d="M26.177,24.575C26.177,25.052 25.978,25.539 25.58,26.037C25.181,26.535 24.703,26.911 24.144,27.165L23.886,26.749C24.078,26.647 24.258,26.538 24.428,26.421C24.598,26.304 24.749,26.167 24.882,26.011C25.019,25.847 25.127,25.68 25.207,25.51C25.288,25.34 25.337,25.132 25.357,24.886L25.029,24.886C24.63,24.886 24.33,24.796 24.126,24.616C23.923,24.436 23.822,24.188 23.822,23.872C23.822,23.622 23.919,23.396 24.115,23.195C24.31,22.994 24.55,22.893 24.835,22.893C25.273,22.893 25.606,23.043 25.834,23.342C26.063,23.64 26.177,24.052 26.177,24.575ZM29.515,24.575C29.515,25.052 29.315,25.539 28.917,26.037C28.519,26.535 28.04,26.911 27.482,27.165L27.224,26.749C27.415,26.647 27.596,26.538 27.766,26.421C27.936,26.304 28.087,26.167 28.22,26.011C28.357,25.847 28.465,25.68 28.545,25.51C28.625,25.34 28.675,25.132 28.694,24.886L28.366,24.886C27.968,24.886 27.667,24.796 27.464,24.616C27.261,24.436 27.159,24.188 27.159,23.872C27.159,23.622 27.257,23.396 27.452,23.195C27.648,22.994 27.888,22.893 28.173,22.893C28.61,22.893 28.943,23.043 29.172,23.342C29.4,23.64 29.515,24.052 29.515,24.575Z" style="fill:rgb(255,0,0);"/>
    </g>
</svg>
