<?xml version="1.0" encoding="UTF-8" standalone="no"?>
<!DOCTYPE svg PUBLIC "-//W3C//DTD SVG 1.1//EN" "http://www.w3.org/Graphics/SVG/1.1/DTD/svg11.dtd">
<svg width="100%" height="100%" viewBox="0 0 256 256" version="1.1" xmlns="http://www.w3.org/2000/svg" xmlns:xlink="http://www.w3.org/1999/xlink" xml:space="preserve" xmlns:serif="http://www.serif.com/" style="fill-rule:evenodd;clip-rule:evenodd;stroke-linejoin:round;stroke-miterlimit:2;">
    <g transform="matrix(1,0,0,1,-306,-306)">
        <g id="bed" transform="matrix(1,0,0,1,-612,306)">
            <rect x="918" y="0" width="256" height="256" style="fill:none;"/>
            <g transform="matrix(2.46825,0,0,3.20828,84.7474,-1098.43)">
                <path d="M342.503,409.411L341.396,409.411C340.187,409.411 339.205,408.656 339.205,407.725L339.205,403.473C339.205,402.542 340.187,401.787 341.396,401.787L342.503,401.787L342.503,392.078C342.503,389.414 345.225,387.236 348.644,387.102L348.644,365.803C348.644,363.19 351.399,361.07 354.791,361.07L424.104,361.07C427.497,361.07 430.252,363.19 430.252,365.803L430.252,387.102C433.671,387.236 436.393,389.414 436.393,392.078L436.393,401.787L437.499,401.787C438.709,401.787 439.69,402.542 439.69,403.473L439.69,407.725C439.69,408.656 438.709,409.411 437.499,409.411L436.393,409.411L436.393,414.282C436.393,415.193 435.431,415.933 434.247,415.933L430.778,415.933C429.66,415.933 428.741,415.275 428.641,414.439L427.391,409.411L351.504,409.411C351.077,411.131 350.255,414.438 350.255,414.436C350.154,415.275 349.235,415.933 348.118,415.933L344.649,415.933C343.464,415.933 342.503,415.193 342.503,414.282L342.503,409.411ZM436.449,404.28L342.446,404.28L342.446,406.918L436.449,406.918L436.449,404.28ZM429.918,389.589L348.978,389.589C347.193,389.589 345.744,390.704 345.744,392.078L345.744,401.787L433.152,401.787L433.152,392.078C433.152,390.704 431.703,389.589 429.918,389.589ZM427.011,387.096L427.011,365.803C427.011,364.567 425.709,363.563 424.104,363.563L354.791,363.563C353.187,363.563 351.885,364.567 351.885,365.803L351.885,387.096L355.531,387.096L355.531,381.432C355.531,379.1 357.992,377.207 361.023,377.207L382.388,377.207C385.419,377.207 387.88,379.1 387.88,381.432L387.88,387.096L391.016,387.096L391.016,381.432C391.016,379.1 393.477,377.207 396.507,377.207L417.873,377.207C420.904,377.207 423.364,379.1 423.364,381.432L423.364,387.096L427.011,387.096ZM430.691,409.411L431.692,413.44L433.152,413.44C433.152,412.046 433.152,409.411 433.152,409.411L430.691,409.411ZM345.744,409.411L345.744,413.44L347.203,413.44L348.204,409.411L345.744,409.411ZM358.772,387.096L384.638,387.096L384.638,381.432C384.638,380.476 383.63,379.701 382.388,379.701L361.023,379.701C359.781,379.701 358.772,380.476 358.772,381.432L358.772,387.096ZM394.257,387.096L420.123,387.096L420.123,381.432C420.123,380.476 419.115,379.701 417.873,379.701L396.507,379.701C395.265,379.701 394.257,380.476 394.257,381.432L394.257,387.096Z"/>
            </g>
        </g>
    </g>
</svg>
