<?xml version="1.0" encoding="UTF-8" standalone="no"?>
<!DOCTYPE svg PUBLIC "-//W3C//DTD SVG 1.1//EN" "http://www.w3.org/Graphics/SVG/1.1/DTD/svg11.dtd">
<svg width="100%" height="100%" viewBox="0 0 256 256" version="1.1" xmlns="http://www.w3.org/2000/svg" xmlns:xlink="http://www.w3.org/1999/xlink" xml:space="preserve" xmlns:serif="http://www.serif.com/" style="fill-rule:evenodd;clip-rule:evenodd;stroke-linecap:round;stroke-miterlimit:1.5;">
    <g transform="matrix(1,0,0,1,0,-306)">
        <g id="Artboard1" transform="matrix(1,0,0,1,-918,306)">
            <rect x="918" y="0" width="256" height="256" style="fill:none;"/>
            <g transform="matrix(2.61853,0,0,2.61853,633.978,-876.987)">
                <circle cx="181.359" cy="350.126" r="7.242" style="fill:none;stroke:black;stroke-width:3.06px;"/>
            </g>
            <g transform="matrix(1,0,0,1,918,-306)">
                <path d="M14.311,456.567L85.618,355.137L154.483,456.37L123.115,410.258L152.049,382.393L199.27,443.831L180.417,419.302L206.271,395.982L241.479,446.425" style="fill:none;stroke:black;stroke-width:8px;stroke-linejoin:round;"/>
            </g>
            <g transform="matrix(1,0,0,1,918,-310.024)">
                <path d="M87.143,475.306L82.67,481.093C81.32,482.84 78.806,483.162 77.059,481.812C75.313,480.461 74.991,477.947 76.341,476.201L87.978,461.145C88.458,460.524 89.108,460.059 89.851,459.806C90.69,459.519 91.597,459.519 92.436,459.806C93.178,460.059 93.828,460.524 94.308,461.145L105.946,476.201C107.296,477.947 106.974,480.461 105.227,481.812C103.481,483.162 100.966,482.84 99.616,481.093L95.143,475.306L95.143,485.04L105.946,499.016C107.296,500.762 106.974,503.277 105.227,504.627C103.481,505.977 100.966,505.655 99.616,503.908L95.143,498.121L95.143,518.235C95.143,520.443 93.351,522.235 91.143,522.235C88.936,522.235 87.143,520.443 87.143,518.235L87.143,498.121L82.67,503.908C81.32,505.655 78.806,505.977 77.059,504.627C75.313,503.277 74.991,500.762 76.341,499.016L87.143,485.04L87.143,475.306Z"/>
            </g>
            <g transform="matrix(1,0,0,1,868.683,-297.953)">
                <path d="M87.143,475.306L82.67,481.093C81.32,482.84 78.806,483.162 77.059,481.812C75.313,480.461 74.991,477.947 76.341,476.201L87.143,462.225L87.143,447.757C87.143,445.549 88.936,443.757 91.143,443.757C93.351,443.757 95.143,445.549 95.143,447.757L95.143,462.225L105.946,476.201C107.296,477.947 106.974,480.461 105.227,481.812C103.481,483.162 100.966,482.84 99.616,481.093L95.143,475.306L95.143,480.189L105.946,494.164C107.296,495.911 106.974,498.425 105.227,499.775C103.481,501.125 100.966,500.804 99.616,499.057L95.143,493.27L95.143,513.384C95.143,515.591 93.351,517.384 91.143,517.384C88.936,517.384 87.143,515.591 87.143,513.384L87.143,493.27L82.67,499.057C81.32,500.804 78.806,501.125 77.059,499.775C75.313,498.425 74.991,495.911 76.341,494.164L87.143,480.189L87.143,475.306Z"/>
            </g>
            <g transform="matrix(1,0,0,1,1017.73,-293.909)">
                <path d="M87.143,475.306L82.67,481.093C81.32,482.84 78.806,483.162 77.059,481.812C75.313,480.461 74.991,477.947 76.341,476.201L87.978,461.145C88.458,460.524 89.108,460.059 89.851,459.806C90.69,459.519 91.597,459.519 92.436,459.806C93.178,460.059 93.828,460.524 94.308,461.145L105.946,476.201C107.296,477.947 106.974,480.461 105.227,481.812C103.481,483.162 100.966,482.84 99.616,481.093L95.143,475.306L95.143,485.04L110.106,503.176C111.456,504.923 111.134,507.437 109.388,508.787C107.641,510.137 105.127,509.815 103.777,508.069L95.143,498.121L95.143,525.235C95.143,527.443 93.351,529.235 91.143,529.235C88.936,529.235 87.143,527.443 87.143,525.235L87.143,498.121L79.458,507.12C78.108,508.867 75.594,509.189 73.847,507.839C72.101,506.488 71.779,503.974 73.129,502.228L87.143,485.04L87.143,475.306Z"/>
            </g>
            <g transform="matrix(1,0,0,1,918,-275.235)">
                <path d="M61.989,388.748L85.618,355.137L91.143,363.259" style="fill:none;stroke:black;stroke-width:8px;stroke-linejoin:round;"/>
            </g>
            <g transform="matrix(1,0,0,1,919.427,-302.987)">
                <path d="M98.032,414.331C98.032,414.331 97.916,428.225 105.362,430.987C112.715,433.714 115.394,444.919 115.394,444.919" style="fill:none;stroke:black;stroke-width:8px;stroke-linejoin:round;"/>
            </g>
            <g transform="matrix(1,0,0,1,918,-306)">
                <path d="M12.725,537.807C12.725,537.807 55.059,515.882 77.919,516.452C122.078,517.553 130.172,542.764 172.023,541.778C205.043,541 241.479,512.6 241.479,512.6" style="fill:none;stroke:black;stroke-width:8px;stroke-linejoin:round;"/>
            </g>
        </g>
    </g>
</svg>
