<?xml version="1.0" encoding="UTF-8" standalone="no"?>
<!DOCTYPE svg PUBLIC "-//W3C//DTD SVG 1.1//EN" "http://www.w3.org/Graphics/SVG/1.1/DTD/svg11.dtd">
<svg width="100%" height="100%" viewBox="0 0 256 256" version="1.1" xmlns="http://www.w3.org/2000/svg" xmlns:xlink="http://www.w3.org/1999/xlink" xml:space="preserve" xmlns:serif="http://www.serif.com/" style="fill-rule:evenodd;clip-rule:evenodd;stroke-linejoin:round;stroke-miterlimit:2;">
    <g id="wifi" transform="matrix(4,0,0,4,0,0)">
        <rect x="0" y="0" width="64" height="64" style="fill:none;"/>
        <clipPath id="_clip1">
            <rect x="0" y="0" width="64" height="64"/>
        </clipPath>
        <g clip-path="url(#_clip1)">
            <g transform="matrix(0.981174,0,0,0.981174,-79.0726,-117.907)">
                <path d="M103.615,162.923C103.134,163.404 102.353,163.404 101.872,162.923C101.39,162.442 101.39,161.66 101.872,161.179C104.773,158.278 108.78,156.482 113.204,156.482C117.627,156.482 121.635,158.278 124.536,161.179C125.017,161.66 125.017,162.442 124.536,162.923C124.055,163.404 123.274,163.404 122.792,162.923C120.337,160.468 116.947,158.948 113.204,158.948C109.461,158.948 106.07,160.468 103.615,162.923ZM96.642,155.949C96.161,156.431 95.379,156.431 94.898,155.949C94.417,155.468 94.417,154.687 94.898,154.206C99.585,149.519 106.058,146.618 113.204,146.618C120.349,146.618 126.823,149.519 131.51,154.206C131.991,154.687 131.991,155.468 131.51,155.949C131.029,156.431 130.247,156.431 129.766,155.949C125.525,151.709 119.669,149.084 113.204,149.084C106.739,149.084 100.882,151.709 96.642,155.949ZM89.668,148.976C89.187,149.457 88.406,149.457 87.924,148.976C87.443,148.495 87.443,147.713 87.924,147.232C94.397,140.76 103.336,136.754 113.204,136.754C123.071,136.754 132.011,140.76 138.483,147.232C138.965,147.713 138.965,148.495 138.483,148.976C138.002,149.457 137.221,149.457 136.74,148.976C130.714,142.95 122.391,139.22 113.204,139.22C104.017,139.22 95.694,142.95 89.668,148.976ZM82.694,142.002C82.213,142.483 81.432,142.483 80.951,142.002C80.47,141.521 80.47,140.74 80.951,140.258C89.209,132 100.614,126.89 113.204,126.89C125.793,126.89 137.199,132 145.457,140.258C145.938,140.74 145.938,141.521 145.457,142.002C144.976,142.483 144.194,142.483 143.713,142.002C135.902,134.191 125.113,129.356 113.204,129.356C101.295,129.356 90.506,134.191 82.694,142.002ZM113.204,166.346C116.606,166.346 119.369,169.109 119.369,172.512C119.369,175.914 116.606,178.677 113.204,178.677C109.801,178.677 107.039,175.914 107.039,172.512C107.039,169.109 109.801,166.346 113.204,166.346ZM113.204,168.813C111.162,168.813 109.505,170.47 109.505,172.512C109.505,174.553 111.162,176.211 113.204,176.211C115.245,176.211 116.903,174.553 116.903,172.512C116.903,170.47 115.245,168.813 113.204,168.813Z"/>
            </g>
        </g>
    </g>
</svg>
